<svg width="255" height="99" viewBox="0 0 255 99" fill="none" xmlns="http://www.w3.org/2000/svg">
<g clip-path="url(#clip0_107_11)">
<rect x="12" y="17" width="65" height="65" rx="12" fill="url(#paint0_linear_107_11)"/>
<path d="M40.048 32.2H53.008V38.68H42.64L42.478 39.004L51.118 54.772C52.882 57.94 53.764 60.352 53.764 62.008C53.764 65.644 52.558 68.308 50.146 70H35.836V63.736H47.014L47.176 63.412L37.456 45.97C36.052 43.45 35.35 41.398 35.35 39.814C35.35 36.07 36.916 33.532 40.048 32.2Z" fill="white"/>
</g>
<path d="M128.54 39.5455C128.322 37.3594 127.357 35.6207 125.644 34.3295C123.931 33.0384 121.777 32.3928 119.182 32.3928C117.354 32.3928 115.743 32.706 114.349 33.3324C112.969 33.9588 111.882 34.8281 111.089 35.9403C110.31 37.0398 109.92 38.2926 109.92 39.6989C109.92 40.7344 110.143 41.642 110.591 42.4219C111.038 43.2017 111.639 43.8729 112.393 44.4354C113.161 44.9851 114.004 45.4581 114.925 45.8544C115.858 46.2507 116.798 46.5831 117.744 46.8516L121.886 48.0405C123.138 48.3857 124.391 48.8267 125.644 49.3636C126.897 49.9006 128.041 50.5781 129.077 51.3963C130.125 52.2017 130.962 53.1925 131.589 54.3686C132.228 55.532 132.548 56.9318 132.548 58.5682C132.548 60.6648 132.004 62.5504 130.918 64.2251C129.831 65.8999 128.271 67.2294 126.239 68.2138C124.206 69.1854 121.771 69.6712 118.933 69.6712C116.261 69.6712 113.94 69.2301 111.972 68.348C110.003 67.4531 108.456 66.2195 107.331 64.647C106.206 63.0746 105.573 61.2528 105.433 59.1818H109.114C109.242 60.7287 109.754 62.0391 110.648 63.1129C111.543 64.1868 112.707 65.005 114.138 65.5675C115.57 66.1172 117.168 66.392 118.933 66.392C120.888 66.392 122.627 66.0661 124.148 65.4141C125.683 64.7493 126.884 63.8288 127.754 62.6527C128.636 61.4638 129.077 60.0831 129.077 58.5107C129.077 57.1811 128.732 56.0689 128.041 55.174C127.351 54.2663 126.386 53.5057 125.146 52.892C123.918 52.2784 122.493 51.7351 120.869 51.2621L116.171 49.8814C113.09 48.9609 110.7 47.6889 108.999 46.0653C107.299 44.4418 106.449 42.3707 106.449 39.8523C106.449 37.7429 107.011 35.8892 108.136 34.2912C109.274 32.6804 110.808 31.4276 112.739 30.5327C114.682 29.625 116.862 29.1712 119.278 29.1712C121.719 29.1712 123.88 29.6186 125.759 30.5135C127.638 31.4084 129.128 32.642 130.227 34.2145C131.339 35.7741 131.934 37.5511 132.011 39.5455H128.54ZM140.467 80.0455V39.5455H143.785V45.1641H144.188C144.597 44.282 145.159 43.3807 145.875 42.4602C146.591 41.527 147.537 40.7408 148.713 40.1016C149.902 39.4624 151.398 39.1428 153.2 39.1428C155.629 39.1428 157.751 39.782 159.567 41.0604C161.395 42.326 162.814 44.103 163.824 46.3913C164.847 48.6669 165.358 51.3196 165.358 54.3494C165.358 57.392 164.847 60.0575 163.824 62.3459C162.814 64.6342 161.395 66.4176 159.567 67.696C157.751 68.9744 155.642 69.6136 153.239 69.6136C151.462 69.6136 149.972 69.294 148.771 68.6548C147.582 68.0156 146.616 67.2294 145.875 66.2962C145.146 65.3501 144.584 64.4297 144.188 63.5348H143.881V80.0455H140.467ZM143.842 54.2919C143.842 56.6697 144.194 58.7791 144.897 60.62C145.613 62.4482 146.636 63.8864 147.965 64.9347C149.308 65.9702 150.931 66.4879 152.836 66.4879C154.792 66.4879 156.441 65.951 157.783 64.8771C159.138 63.7905 160.168 62.3267 160.871 60.4858C161.587 58.6449 161.945 56.5803 161.945 54.2919C161.945 52.0291 161.593 49.9901 160.89 48.1747C160.2 46.3594 159.177 44.9212 157.822 43.8601C156.467 42.7862 154.805 42.2493 152.836 42.2493C150.918 42.2493 149.288 42.767 147.946 43.8026C146.604 44.8253 145.581 46.2443 144.878 48.0597C144.188 49.8622 143.842 51.9396 143.842 54.2919ZM184.755 69.6136C182.006 69.6136 179.628 68.9744 177.621 67.696C175.614 66.4048 174.061 64.6214 172.961 62.3459C171.875 60.0575 171.331 57.424 171.331 54.4453C171.331 51.4794 171.875 48.8459 172.961 46.5447C174.061 44.2308 175.576 42.4219 177.506 41.1179C179.449 39.8011 181.693 39.1428 184.237 39.1428C185.835 39.1428 187.375 39.4368 188.858 40.0249C190.341 40.6001 191.671 41.4886 192.847 42.6903C194.036 43.8793 194.975 45.3814 195.666 47.1967C196.356 48.9993 196.701 51.1342 196.701 53.6016V55.2891H173.69V52.2784H193.211C193.211 50.3864 192.828 48.6861 192.061 47.1776C191.306 45.6562 190.252 44.4545 188.897 43.5724C187.554 42.6903 186.001 42.2493 184.237 42.2493C182.37 42.2493 180.728 42.7479 179.309 43.745C177.89 44.7422 176.777 46.0589 175.972 47.6953C175.179 49.3317 174.777 51.1214 174.764 53.0646V54.8672C174.764 57.2067 175.167 59.2521 175.972 61.0036C176.79 62.7422 177.947 64.0909 179.443 65.0497C180.939 66.0085 182.709 66.4879 184.755 66.4879C186.148 66.4879 187.369 66.2706 188.417 65.8359C189.478 65.4013 190.367 64.8196 191.083 64.0909C191.811 63.3494 192.361 62.5376 192.732 61.6555L195.973 62.7102C195.525 63.9503 194.79 65.0945 193.767 66.1428C192.757 67.1911 191.492 68.0348 189.971 68.674C188.462 69.3004 186.723 69.6136 184.755 69.6136ZM207.33 57.8778L207.291 53.4098H208.058L221.865 39.5455H226.18L212.546 53.1989L212.239 53.2564L207.33 57.8778ZM204.223 69V29.7273H207.637V69H204.223ZM222.575 69L210.609 53.87L213.063 51.5114L226.947 69H222.575Z" fill="black"/>
<defs>
<linearGradient id="paint0_linear_107_11" x1="21" y1="17" x2="70" y2="82" gradientUnits="userSpaceOnUse">
<stop/>
<stop offset="1" stop-color="#666666"/>
</linearGradient>
<clipPath id="clip0_107_11">
<rect x="12" y="17" width="65" height="65" rx="12" fill="white"/>
</clipPath>
</defs>
</svg>
