<svg width="70" height="30" viewBox="0 0 70 30" fill="none" xmlns="http://www.w3.org/2000/svg">
<path d="M13.5739 6.63636C13.446 5.55682 12.9276 4.71875 12.0185 4.12216C11.1094 3.52557 9.99432 3.22727 8.6733 3.22727C7.70739 3.22727 6.86222 3.38352 6.13778 3.69602C5.42045 4.00852 4.85938 4.43821 4.45455 4.98508C4.05682 5.53196 3.85795 6.15341 3.85795 6.84943C3.85795 7.43182 3.99645 7.93253 4.27344 8.35156C4.55753 8.76349 4.91974 9.10795 5.36009 9.38494C5.80043 9.65483 6.26207 9.87855 6.74503 10.0561C7.22798 10.2266 7.67188 10.3651 8.0767 10.4716L10.2926 11.0682C10.8608 11.2173 11.4929 11.4233 12.1889 11.6861C12.892 11.9489 13.5632 12.3075 14.2024 12.7621C14.8487 13.2095 15.3814 13.7848 15.8004 14.4879C16.2195 15.1911 16.429 16.054 16.429 17.0767C16.429 18.2557 16.12 19.321 15.5021 20.2727C14.8913 21.2244 13.9964 21.9808 12.8175 22.5419C11.6456 23.103 10.2216 23.3835 8.54545 23.3835C6.98295 23.3835 5.62997 23.1314 4.48651 22.6271C3.35014 22.1229 2.45526 21.4197 1.80185 20.5178C1.15554 19.6158 0.789773 18.5682 0.704546 17.375H3.43182C3.50284 18.1989 3.77983 18.8807 4.26278 19.4205C4.75284 19.9531 5.37074 20.3509 6.11648 20.6136C6.86932 20.8693 7.67898 20.9972 8.54545 20.9972C9.55398 20.9972 10.4595 20.8338 11.2621 20.5071C12.0646 20.1733 12.7003 19.7116 13.169 19.1222C13.6378 18.5256 13.8722 17.8295 13.8722 17.0341C13.8722 16.3097 13.6697 15.7202 13.2649 15.2656C12.8601 14.8111 12.3274 14.4418 11.6669 14.1577C11.0064 13.8736 10.2926 13.625 9.52557 13.4119L6.84091 12.6449C5.13636 12.1548 3.78693 11.4553 2.79261 10.5462C1.7983 9.63707 1.30114 8.44744 1.30114 6.97727C1.30114 5.75568 1.63139 4.69034 2.2919 3.78125C2.95952 2.86506 3.8544 2.15483 4.97656 1.65057C6.10582 1.1392 7.36648 0.883522 8.75852 0.883522C10.1648 0.883522 11.4148 1.13565 12.5085 1.63991C13.6023 2.13707 14.4688 2.81889 15.108 3.68537C15.7543 4.55185 16.0952 5.53551 16.1307 6.63636H13.5739ZM20.432 29.1364V6.63636H22.861V9.23579H23.1593C23.3439 8.9517 23.5996 8.58949 23.9263 8.14915C24.2601 7.7017 24.736 7.30398 25.3539 6.95597C25.9789 6.60085 26.824 6.4233 27.8894 6.4233C29.2672 6.4233 30.4817 6.76776 31.5328 7.45668C32.584 8.1456 33.4043 9.12216 33.9938 10.3864C34.5833 11.6506 34.878 13.142 34.878 14.8608C34.878 16.5938 34.5833 18.0959 33.9938 19.3672C33.4043 20.6314 32.5875 21.6115 31.5435 22.3075C30.4995 22.9964 29.2956 23.3409 27.932 23.3409C26.8809 23.3409 26.0392 23.1669 25.4071 22.8189C24.775 22.4638 24.2885 22.0625 23.9476 21.6151C23.6067 21.1605 23.3439 20.7841 23.1593 20.4858H22.9462V29.1364H20.432ZM22.9036 14.8182C22.9036 16.054 23.0847 17.1442 23.4469 18.0888C23.8091 19.0263 24.3382 19.7614 25.0343 20.294C25.7303 20.8196 26.5826 21.0824 27.5911 21.0824C28.6422 21.0824 29.5194 20.8054 30.2225 20.2514C30.9327 19.6903 31.4654 18.9375 31.8205 17.9929C32.1827 17.0412 32.3638 15.983 32.3638 14.8182C32.3638 13.6676 32.1863 12.6307 31.8311 11.7074C31.4831 10.777 30.954 10.0419 30.2438 9.50213C29.5407 8.95526 28.6564 8.68182 27.5911 8.68182C26.5684 8.68182 25.709 8.94105 25.013 9.45952C24.3169 9.97088 23.7914 10.6882 23.4363 11.6115C23.0811 12.5277 22.9036 13.5966 22.9036 14.8182ZM45.574 23.3409C43.9973 23.3409 42.6373 22.9929 41.4938 22.2969C40.3574 21.5938 39.4803 20.6136 38.8624 19.3565C38.2516 18.0923 37.9462 16.6222 37.9462 14.946C37.9462 13.2699 38.2516 11.7926 38.8624 10.5142C39.4803 9.22869 40.3397 8.22727 41.4405 7.50994C42.5485 6.78551 43.8411 6.4233 45.3184 6.4233C46.1706 6.4233 47.0123 6.56534 47.8432 6.84943C48.6742 7.13352 49.4306 7.59517 50.1124 8.23438C50.7942 8.86648 51.3375 9.70455 51.7424 10.7486C52.1472 11.7926 52.3496 13.0781 52.3496 14.6051V15.6705H39.736V13.4972H49.7928C49.7928 12.5739 49.6081 11.75 49.2388 11.0256C48.8766 10.3011 48.3581 9.7294 47.6834 9.31037C47.0158 8.89133 46.2275 8.68182 45.3184 8.68182C44.3169 8.68182 43.4505 8.9304 42.7189 9.42756C41.9945 9.91761 41.437 10.5568 41.0463 11.3452C40.6557 12.1335 40.4604 12.9787 40.4604 13.8807V15.3295C40.4604 16.5653 40.6735 17.6129 41.0996 18.4723C41.5328 19.3246 42.133 19.9744 42.9 20.4219C43.6671 20.8622 44.5584 21.0824 45.574 21.0824C46.2346 21.0824 46.8311 20.9901 47.3638 20.8054C47.9036 20.6136 48.3688 20.3295 48.7594 19.9531C49.15 19.5696 49.4519 19.0937 49.665 18.5256L52.0939 19.2074C51.8382 20.0312 51.4086 20.7557 50.8049 21.3807C50.2012 21.9986 49.4554 22.4815 48.5676 22.8295C47.6799 23.1705 46.682 23.3409 45.574 23.3409ZM58.5179 17.0341L58.4753 13.9233H58.9867L66.1458 6.63636H69.2566L61.6287 14.3494H61.4157L58.5179 17.0341ZM56.1742 23V1.18182H58.6884V23H56.1742ZM66.5719 23L60.1799 14.9034L61.9696 13.1562L69.7679 23H66.5719Z" fill="#828FFF"/>
</svg>
