<svg width="32" height="32" viewBox="0 0 32 32" fill="none" xmlns="http://www.w3.org/2000/svg">
<rect width="32" height="32" fill="#101010"/>
<path d="M19.6591 10.9091C19.5568 10.0455 19.142 9.375 18.4148 8.89773C17.6875 8.42045 16.7955 8.18182 15.7386 8.18182C14.9659 8.18182 14.2898 8.30682 13.7102 8.55682C13.1364 8.80682 12.6875 9.15057 12.3636 9.58807C12.0455 10.0256 11.8864 10.5227 11.8864 11.0795C11.8864 11.5455 11.9972 11.946 12.2188 12.2812C12.446 12.6108 12.7358 12.8864 13.0881 13.108C13.4403 13.3239 13.8097 13.5028 14.196 13.6449C14.5824 13.7812 14.9375 13.892 15.2614 13.9773L17.0341 14.4545C17.4886 14.5739 17.9943 14.7386 18.5511 14.9489C19.1136 15.1591 19.6506 15.446 20.1619 15.8097C20.679 16.1676 21.1051 16.6278 21.4403 17.1903C21.7756 17.7528 21.9432 18.4432 21.9432 19.2614C21.9432 20.2045 21.696 21.0568 21.2017 21.8182C20.7131 22.5795 19.9972 23.1847 19.054 23.6335C18.1165 24.0824 16.9773 24.3068 15.6364 24.3068C14.3864 24.3068 13.304 24.1051 12.3892 23.7017C11.4801 23.2983 10.7642 22.7358 10.2415 22.0142C9.72443 21.2926 9.43182 20.4545 9.36364 19.5H11.5455C11.6023 20.1591 11.8239 20.7045 12.2102 21.1364C12.6023 21.5625 13.0966 21.8807 13.6932 22.0909C14.2955 22.2955 14.9432 22.3977 15.6364 22.3977C16.4432 22.3977 17.1676 22.267 17.8097 22.0057C18.4517 21.7386 18.9602 21.3693 19.3352 20.8977C19.7102 20.4205 19.8977 19.8636 19.8977 19.2273C19.8977 18.6477 19.7358 18.1761 19.4119 17.8125C19.0881 17.4489 18.6619 17.1534 18.1335 16.9261C17.6051 16.6989 17.0341 16.5 16.4205 16.3295L14.2727 15.7159C12.9091 15.3239 11.8295 14.7642 11.0341 14.0369C10.2386 13.3097 9.84091 12.358 9.84091 11.1818C9.84091 10.2045 10.1051 9.35227 10.6335 8.625C11.1676 7.89205 11.8835 7.32386 12.7812 6.92045C13.6847 6.51136 14.6932 6.30682 15.8068 6.30682C16.9318 6.30682 17.9318 6.50852 18.8068 6.91193C19.6818 7.30966 20.375 7.85511 20.8864 8.54829C21.4034 9.24148 21.6761 10.0284 21.7045 10.9091H19.6591Z" fill="white"/>
</svg>
